<svg width="34" height="34" viewBox="0 0 34 34" fill="none" xmlns="http://www.w3.org/2000/svg">
<g clip-path="url(#clip0_299_82)">
<path d="M9.16636 1.90845C6.80704 3.13448 4.76782 4.89628 3.2122 7.05257C1.65658 9.20887 0.627852 11.6997 0.208496 14.3252H1.1945C7.5525 14.1779 12.5369 13.6271 16.6078 12.3804C14.8398 9.24565 12.682 6.16978 10.0934 3.04178L10.0912 3.03951L9.16636 1.90845Z" fill="white"/>
<path d="M0.00453333 16.5921L0 17.0001C0 21.572 1.80427 25.7222 4.7396 28.7777L5.10453 28.0433C5.12481 28.0027 5.14752 27.9633 5.17253 27.9254C8.93067 22.2089 13.1829 18.8089 17.9384 17.2834C18.2603 17.1792 18.5867 17.084 18.9131 16.9978C18.5323 16.1249 18.1264 15.2632 17.6959 14.4138C13.2419 15.8486 7.888 16.438 1.23307 16.5898H0.0068L0.00453333 16.5921Z" fill="white"/>
<path d="M6.48267 30.3576C9.47763 32.7226 13.1839 34.0062 17 34.0001C19.0241 34.0001 20.9667 33.6465 22.7641 32.9983V31.3663C22.2111 26.9803 21.2387 22.9569 19.7767 19.1172C19.3913 19.2124 19.0083 19.3212 18.6297 19.4413C14.4999 20.7673 10.6397 23.7548 7.10373 29.1155L6.48493 30.3576H6.48267Z" fill="white"/>
<path d="M25.0308 31.9872C27.2219 30.8114 29.1289 29.17 30.6177 27.1784C32.1066 25.1868 33.1411 22.8932 33.6486 20.4589L32.368 19.8809C28.6824 18.7974 25.2484 18.3532 22.0479 18.7136C23.494 22.6122 24.4664 26.7058 25.0217 31.153C25.0285 31.1984 25.0308 31.2437 25.0308 31.2936V31.9872Z" fill="white"/>
<path d="M33.9638 18.1153C34.263 13.6628 32.7927 9.27225 29.8724 5.89795L29.1992 6.64368C26.5472 9.86915 23.519 12.1063 19.8379 13.6295C20.3184 14.5906 20.7672 15.5585 21.182 16.5399C24.9719 15.9959 28.9567 16.5082 33.0843 17.7299C33.1346 17.7446 33.1838 17.7628 33.2316 17.7843L33.9638 18.1153Z" fill="white"/>
<path d="M28.2789 4.27949C25.172 1.51701 21.1575 -0.0061803 17 1.88479e-05C15.0099 1.88479e-05 13.1013 0.340019 11.3265 0.970152L11.8433 1.60029C14.6087 4.93909 16.9025 8.23935 18.7748 11.6144C22.2723 10.2023 25.0444 8.13735 27.4652 5.18389C27.4762 5.17001 27.4875 5.15641 27.4992 5.14309L28.2789 4.28175V4.27949Z" fill="white"/>
</g>
<defs>
<clipPath id="clip0_299_82">
<rect width="34" height="34" fill="white"/>
</clipPath>
</defs>
</svg>
