<svg width="34" height="34" viewBox="0 0 34 34" fill="none" xmlns="http://www.w3.org/2000/svg">
<g clip-path="url(#clip0_299_98)">
<path d="M8.78475 29.75H2.61694V9.88762H8.78475V29.75ZM5.69712 7.17825C3.72513 7.17825 2.125 5.54413 2.125 3.57212C2.125 2.62474 2.50135 1.71615 3.17125 1.04625C3.84115 0.376348 4.74974 0 5.69712 0C6.64451 0 7.5531 0.376348 8.223 1.04625C8.8929 1.71615 9.26925 2.62474 9.26925 3.57212C9.26925 5.54413 7.66913 7.17825 5.69712 7.17825ZM31.8686 29.75H25.7146V20.0812C25.7146 17.7767 25.6679 14.8219 22.508 14.8219C19.3014 14.8219 18.8094 17.3251 18.8094 19.9155V29.75H12.648V9.88762H18.5629V12.597H18.649C19.4724 11.0362 21.4838 9.38931 24.4843 9.38931C30.7264 9.38931 31.8739 13.5001 31.8739 18.8392V29.75H31.8686Z" fill="white"/>
</g>
<defs>
<clipPath id="clip0_299_98">
<rect width="34" height="34" fill="white"/>
</clipPath>
</defs>
</svg>
