<svg width="38" height="38" viewBox="0 0 38 38" fill="none" xmlns="http://www.w3.org/2000/svg">
<path d="M34.0417 13.4393V26.7188C34.0417 29.0146 32.1813 30.875 29.8855 30.875H8.11462C7.01232 30.875 5.95516 30.4371 5.17571 29.6577C4.39626 28.8782 3.95837 27.8211 3.95837 26.7188V13.4393L18.5235 21.451C18.8203 21.6141 19.1805 21.6141 19.4766 21.451L34.0417 13.4385V13.4393ZM29.8855 7.125C30.9704 7.1251 32.0123 7.54945 32.7886 8.30741C33.5649 9.06537 34.0141 10.0968 34.0401 11.1815L19 19.4544L3.95996 11.1807L3.96154 11.1095C4.00588 10.0377 4.46283 9.02467 5.23684 8.28208C6.01086 7.53949 7.04199 7.1249 8.11462 7.125H29.8855Z" fill="white"/>
</svg>
