<svg width="32" height="32" viewBox="0 0 32 32" fill="none" xmlns="http://www.w3.org/2000/svg">
<path d="M5.71339 9.69195C5.72876 9.5389 5.70779 9.38439 5.65219 9.24097C5.59658 9.09756 5.50791 8.9693 5.39339 8.86661L3.03339 6.02261V5.59595H10.3641L16.0307 18.0226L21.0121 5.59595H28.0001V6.02128L25.9801 7.95595C25.8955 8.02179 25.8302 8.10908 25.7908 8.20873C25.7514 8.30838 25.7394 8.41676 25.7561 8.52261V22.7439C25.7391 22.8498 25.751 22.9583 25.7904 23.058C25.8298 23.1577 25.8953 23.245 25.9801 23.3106L27.9521 25.2453V25.6706H18.0374V25.2453L20.0761 23.2626C20.2787 23.0626 20.2787 23.0026 20.2787 22.6973V11.2013L14.6001 25.6239H13.8334L7.22272 11.2013V20.8666C7.16806 21.2733 7.30272 21.6826 7.58939 21.9773L10.2454 25.1999V25.6253H2.71472V25.1999L5.37072 21.9773C5.51045 21.8317 5.61421 21.6554 5.6737 21.4626C5.7332 21.2697 5.74679 21.0656 5.71339 20.8666V9.69195Z" fill="white"/>
</svg>
